<?xml version="1.0" encoding="UTF-8" standalone="no"?> <svg width="48" height="48" viewBox="0 0 48 48" fill="none" xmlns="http://www.w3.org/2000/svg">
<path  fill="white" d="M45.89 18.708C45.3531 17.5356 44.721 16.4091 44 15.34L46.835 7.64C46.9707 7.31235 47.0406 6.96118 47.0406 6.60653C47.0406 6.25189 46.9707 5.90071 46.835 5.57306C46.6993 5.24541 46.5004 4.9477 46.2496 4.69692C45.9989 4.44615 45.7011 4.24722 45.3735 4.1115C45.0459 3.97578 44.6947 3.90592 44.34 3.90591C43.9854 3.90591 43.6342 3.97576 43.3066 4.11147C42.9789 4.24718 42.6812 4.4461 42.4304 4.69687C42.1796 4.94764 41.9807 5.24535 41.845 5.573L39.6 10.431C36.448 7.80494 32.6708 6.03824 28.6347 5.30235C24.5987 4.56645 20.441 4.88635 16.565 6.231C13.6044 7.27558 10.8868 8.91051 8.57686 11.0367C6.26694 13.1628 4.41286 15.7359 3.127 18.6C1.79535 21.5146 1.06961 24.6693 0.993802 27.8727C0.917995 31.0762 1.4937 34.2617 2.686 37.236C3.30936 38.8327 4.36523 40.2241 5.7352 41.2542C7.10516 42.2843 8.73503 42.9124 10.442 43.068C10.7878 43.1046 11.1353 43.123 11.483 43.123C13.0586 43.129 14.6112 42.7448 16.0022 42.0048C17.3933 41.2648 18.5795 40.192 19.455 38.882C21.1436 36.3423 23.5663 34.3776 26.4 33.25C27.1604 32.949 27.9436 32.709 28.742 32.532C28.327 32.9622 27.996 33.4662 27.766 34.018C27.1381 35.5551 27.009 37.2506 27.397 38.865C27.7209 40.1093 27.6357 41.4248 27.154 42.617C27.0909 42.7693 27.0663 42.9348 27.0826 43.0988C27.0989 43.2629 27.1555 43.4203 27.2474 43.5572C27.3392 43.6941 27.4635 43.8061 27.6091 43.8834C27.7547 43.9606 27.9172 44.0007 28.082 44H28.153C30.0059 43.8062 31.773 43.1196 33.2708 42.0117C34.7686 40.9038 35.9423 39.415 36.67 37.7C37.0184 36.8527 37.1178 35.9236 36.9564 35.0217C36.795 34.1199 36.3796 33.2829 35.759 32.609C37.423 32.907 39.1363 32.7572 40.7234 32.1749C42.3104 31.5926 43.7141 30.5987 44.7904 29.2952C45.8668 27.9917 46.5772 26.4254 46.8488 24.7569C47.1204 23.0883 46.9434 21.3776 46.336 19.8C46.2 19.431 46.052 19.073 45.89 18.708ZM43.658 6.408C43.7143 6.28534 43.8048 6.18157 43.9187 6.10918C44.0326 6.0368 44.165 5.99888 44.3 6C44.3924 5.99973 44.4839 6.01809 44.569 6.054C44.7372 6.12282 44.8721 6.25438 44.9451 6.42085C45.018 6.58732 45.0234 6.77565 44.96 6.946L37.037 28.458C36.9619 28.6629 36.8461 28.8505 36.6967 29.0095C36.5472 29.1686 36.3671 29.2957 36.1673 29.3834C35.9674 29.4711 35.7519 29.5174 35.5337 29.5197C35.3154 29.5219 35.099 29.4801 34.8974 29.3965C34.6958 29.313 34.5131 29.1896 34.3604 29.0337C34.2077 28.8778 34.088 28.6926 34.0087 28.4893C33.9294 28.286 33.8919 28.0688 33.8987 27.8507C33.9054 27.6325 33.9562 27.418 34.048 27.22L43.658 6.408ZM25.663 31.392C22.4507 32.6697 19.7043 34.8963 17.79 37.775C17.0194 38.929 15.9454 39.8482 14.6863 40.4314C13.4272 41.0147 12.0316 41.2394 10.653 41.081C9.30986 40.9602 8.02693 40.4675 6.94807 39.6584C5.86922 38.8493 5.03709 37.7556 4.545 36.5C3.45212 33.7752 2.92405 30.8569 2.99281 27.9219C3.06157 24.987 3.72572 22.0966 4.945 19.426C6.1203 16.8063 7.81549 14.4526 9.92777 12.5078C12.04 10.563 14.5254 9.06745 17.233 8.112C20.8679 6.85275 24.7715 6.57904 28.5465 7.31873C32.3215 8.05841 35.8332 9.78509 38.724 12.323L32.231 26.382C31.9383 26.9992 31.8308 27.688 31.9213 28.365C32.0118 29.042 32.2965 29.6784 32.741 30.197C30.3237 30.0901 27.9112 30.4974 25.663 31.392ZM34.822 36.938C34.3513 38.081 33.628 39.1026 32.7063 39.9262C31.7847 40.7499 30.6885 41.3543 29.5 41.694C29.6436 40.6419 29.602 39.5728 29.377 38.535C29.0539 37.2906 29.1391 35.9753 29.62 34.783C29.758 34.4363 29.9636 34.1205 30.2247 33.8539C30.4858 33.5873 30.7973 33.3752 31.141 33.23C31.4848 33.0848 31.854 33.0093 32.2271 33.008C32.6003 33.0067 32.97 33.0795 33.3148 33.2223C33.6596 33.365 33.9726 33.5748 34.2356 33.8396C34.4986 34.1043 34.7064 34.4186 34.8469 34.7643C34.9874 35.11 35.0578 35.4802 35.0541 35.8534C35.0503 36.2265 34.9724 36.5952 34.825 36.938H34.822ZM43.159 28.138C42.4861 28.9379 41.6519 29.5867 40.7111 30.0422C39.7702 30.4976 38.7438 30.7494 37.699 30.781C38.2526 30.3669 38.6745 29.8015 38.914 29.153L43.129 17.7C43.47 18.3 43.784 18.9 44.064 19.526C44.206 19.848 44.339 20.169 44.469 20.518C44.9767 21.7844 45.123 23.1668 44.8917 24.5114C44.6605 25.856 44.0606 27.11 43.159 28.134V28.138Z" />
<path  fill="white" d="M10.5 24C9.60998 24 8.73995 24.2639 7.99993 24.7584C7.25991 25.2529 6.68314 25.9557 6.34254 26.7779C6.00195 27.6002 5.91283 28.505 6.08647 29.3779C6.2601 30.2508 6.68868 31.0526 7.31802 31.682C7.94736 32.3113 8.74918 32.7399 9.62209 32.9135C10.495 33.0872 11.3998 32.9981 12.2221 32.6575C13.0443 32.3169 13.7471 31.7401 14.2416 31.0001C14.7361 30.26 15 29.39 15 28.5C14.9987 27.3069 14.5241 26.1631 13.6805 25.3195C12.8369 24.4759 11.6931 24.0013 10.5 24V24ZM10.5 31C10.0055 31 9.5222 30.8534 9.11107 30.5787C8.69995 30.304 8.37952 29.9135 8.1903 29.4567C8.00108 28.9999 7.95157 28.4972 8.04804 28.0123C8.1445 27.5273 8.3826 27.0819 8.73223 26.7322C9.08186 26.3826 9.52732 26.1445 10.0123 26.048C10.4972 25.9516 10.9999 26.0011 11.4567 26.1903C11.9135 26.3795 12.304 26.7 12.5787 27.1111C12.8534 27.5222 13 28.0055 13 28.5C13 29.163 12.7366 29.7989 12.2678 30.2678C11.7989 30.7366 11.163 31 10.5 31Z" />
<path  fill="white" d="M15.5 12.5C14.61 12.5 13.74 12.7639 12.9999 13.2584C12.2599 13.7529 11.6831 14.4557 11.3425 15.2779C11.0019 16.1002 10.9128 17.005 11.0865 17.8779C11.2601 18.7508 11.6887 19.5526 12.318 20.182C12.9474 20.8113 13.7492 21.2399 14.6221 21.4135C15.495 21.5872 16.3998 21.4981 17.2221 21.1575C18.0443 20.8169 18.7471 20.2401 19.2416 19.5001C19.7361 18.76 20 17.89 20 17C19.9987 15.8069 19.5241 14.6631 18.6805 13.8195C17.8369 12.9759 16.6931 12.5013 15.5 12.5V12.5ZM15.5 19.5C15.0055 19.5 14.5222 19.3534 14.1111 19.0787C13.7 18.804 13.3795 18.4135 13.1903 17.9567C13.0011 17.4999 12.9516 16.9972 13.048 16.5123C13.1445 16.0273 13.3826 15.5819 13.7322 15.2322C14.0819 14.8826 14.5273 14.6445 15.0123 14.548C15.4972 14.4516 15.9999 14.5011 16.4567 14.6903C16.9135 14.8795 17.304 15.2 17.5787 15.6111C17.8534 16.0222 18 16.5055 18 17C18 17.663 17.7366 18.2989 17.2678 18.7678C16.7989 19.2366 16.163 19.5 15.5 19.5Z" />
<path  fill="white" d="M28.5 10C27.61 10 26.74 10.2639 25.9999 10.7584C25.2599 11.2529 24.6831 11.9557 24.3425 12.7779C24.0019 13.6002 23.9128 14.505 24.0865 15.3779C24.2601 16.2508 24.6887 17.0526 25.318 17.682C25.9474 18.3113 26.7492 18.7399 27.6221 18.9135C28.495 19.0872 29.3998 18.9981 30.2221 18.6575C31.0443 18.3169 31.7471 17.7401 32.2416 17.0001C32.7361 16.26 33 15.39 33 14.5C32.9987 13.3069 32.5241 12.1631 31.6805 11.3195C30.8369 10.4759 29.6931 10.0013 28.5 10V10ZM28.5 17C28.0055 17 27.5222 16.8534 27.1111 16.5787C26.6999 16.304 26.3795 15.9135 26.1903 15.4567C26.0011 14.9999 25.9516 14.4972 26.048 14.0123C26.1445 13.5273 26.3826 13.0819 26.7322 12.7322C27.0819 12.3826 27.5273 12.1445 28.0123 12.048C28.4972 11.9516 28.9999 12.0011 29.4567 12.1903C29.9135 12.3795 30.304 12.7 30.5787 13.1111C30.8534 13.5222 31 14.0055 31 14.5C31 15.163 30.7366 15.7989 30.2678 16.2678C29.7989 16.7366 29.163 17 28.5 17Z" />
</svg>
